# xmcd
#
# Track frame offsets:
#	150
#	18617
#	40662
#	61292
#	78287
#	93900
#	115420
#	131082
#	153382
#	170745
#	190635
#
# Disc length: 2772 seconds
#
# Revision: 30408378
# Processed by: cddbd v1.5.2PL0 Copyright (c) Steve Scherf et al.
# Submitted via: EZCDAudioConverter 8.0.2.1
#
DISCID=890ad20b
DTITLE=Lâm Nhật Tiến, Shayla, Lê Tâm, Trish - The Best Of Chinese Melodies 2
DYEAR=2000
DGENRE=World Pop
TTITLE0=Lâm Nhật Tiến - Cry
TTITLE1=Lâm Nhật Tiến - Kiếp ve sầu
TTITLE2=Lê Tâm - My Love Is Gone
TTITLE3=Trish - Tomorrow Will Come
TTITLE4=Lâm Nhật Tiến - Tình Ngang trái
TTITLE5=Lâm Nhật Tiến - Nhớ về em
TTITLE6=Lâm Nhật Tiến - Anh vẫn đợi em
TTITLE7=Shayla - Cuộc tình đã lỡ
TTITLE8=Lâm Nhật Tiến - Nhớ người
TTITLE9=Lê Tâm - Tiễn bạn lên đường
TTITLE10=Lâm Nhật Tiến - Nhớ người (Chinese Version)
EXTD=
EXTT0=
EXTT1=
EXTT2=
EXTT3=
EXTT4=
EXTT5=
EXTT6=
EXTT7=
EXTT8=
EXTT9=
EXTT10=
PLAYORDER=
